<?xml version="1.0" encoding="UTF-8"?>
<!-- Generator: visioncortex VTracer 0.6.4 -->
<svg version="1.1" xmlns="http://www.w3.org/2000/svg" width="1500" height="1500">
<path d="M0 0 C495 0 990 0 1500 0 C1500 495 1500 990 1500 1500 C1005 1500 510 1500 0 1500 C0 1005 0 510 0 0 Z " fill="#FEFEFE" transform="translate(0,0)"/>
<path d="M0 0 C0 72.93 0 145.86 0 221 C18.32 220.5 18.32 220.5 37 220 C42.28 220 47.56 220 53 220 C53 147.4 53 74.8 53 0 C73.91 1.16 73.91 1.16 82.31 2.75 C83.28 2.93 84.25 3.11 85.24 3.29 C88.17 3.84 91.08 4.41 94 5 C94.85 5.17 95.71 5.34 96.59 5.51 C108.31 7.91 119.65 11.37 131 15.12 C131.66 15.34 132.32 15.56 133 15.79 C148.99 21.08 148.99 21.08 150.88 24.68 C151.74 26.91 152.45 29.15 153.13 31.43 C153.4 32.3 153.68 33.16 153.96 34.05 C154.85 36.84 155.71 39.64 156.56 42.44 C157.39 45.09 158.23 47.74 159.06 50.39 C159.66 52.3 160.27 54.22 160.87 56.13 C163.62 64.9 166.51 73.62 169.43 82.33 C169.8 83.44 169.8 83.44 170.18 84.58 C170.56 85.72 170.56 85.72 170.95 86.88 C171.48 88.47 172.01 90.06 172.55 91.65 C172.96 92.88 172.96 92.88 173.37 94.13 C179.12 111.33 184.79 128.55 190.47 145.77 C192.29 151.3 194.12 156.82 195.94 162.35 C197.36 166.66 198.79 170.97 200.21 175.28 C200.88 177.32 201.55 179.36 202.23 181.4 C203.16 184.22 204.09 187.05 205.03 189.87 C205.3 190.7 205.57 191.52 205.85 192.37 C207.34 196.89 208.73 201.42 210 206 C232.61 149.04 232.61 149.04 255 92 C259 92 259 92 260.63 93.16 C261.15 93.69 261.67 94.23 262.21 94.78 C262.79 95.37 263.37 95.96 263.97 96.57 C264.58 97.21 265.19 97.84 265.81 98.5 C266.44 99.15 267.07 99.79 267.72 100.46 C271.97 104.84 276.09 109.3 280 114 C280.73 114.85 281.46 115.71 282.21 116.59 C293.57 129.97 303.79 144.05 313 159 C313.44 159.71 313.88 160.43 314.34 161.16 C331.06 188.46 343.76 218.07 352 249 C352.25 249.95 352.51 250.9 352.77 251.88 C357.52 270.07 360.08 288.33 362 307 C362.16 308.49 362.16 308.49 362.32 310.02 C363.14 318.61 363.2 327.19 363.19 335.81 C363.19 336.58 363.19 337.36 363.18 338.15 C363.04 392.42 350.31 444.91 325 493 C324.23 494.49 323.45 495.98 322.68 497.47 C321.89 498.98 321.1 500.49 320.31 502 C319.96 502.68 319.6 503.36 319.23 504.07 C316.7 508.85 313.92 513.44 311 518 C306.19 516.41 302.5 513.69 298.44 510.75 C296.92 509.66 295.39 508.57 293.87 507.48 C293.08 506.91 292.28 506.34 291.46 505.76 C287.33 502.81 283.16 499.91 279 497 C271.91 492.04 264.83 487.07 257.77 482.07 C252.52 478.37 247.27 474.68 242 471 C242.55 465.91 245.02 462.19 247.56 457.88 C259.79 436.41 267.08 412.88 273 389 C269.33 389.08 265.67 389.2 262 389.31 C261.01 389.34 260.02 389.36 259 389.38 C247.13 389.78 235.96 391.5 224 393 C214.1 417.75 214.1 417.75 204 443 C197.55 436.55 195.63 422.54 193.14 413.88 C192.24 410.76 191.25 407.69 190.19 404.62 C189 401 189 401 189 398 C175.88 399.99 162.9 402.32 149.92 405.08 C148.62 405.35 148.62 405.35 147.29 405.64 C145.58 406 143.87 406.36 142.17 406.73 C136.22 408 136.22 408 134 408 C134 490.5 134 573 134 658 C125.09 660.47 125.09 660.47 116 663 C113.62 663.71 111.23 664.42 108.78 665.15 C101.78 667.15 94.74 668.45 87.56 669.62 C86.3 669.84 85.03 670.05 83.73 670.27 C61.2 674 61.2 674 53 674 C53 594.14 53 514.28 53 432 C29.04 440.42 29.04 440.42 5.48 449.64 C2 451 2 451 0 451 C0 524.59 0 598.18 0 674 C-24.16 672.85 -24.16 672.85 -31.38 671.25 C-32.22 671.08 -33.06 670.9 -33.93 670.72 C-35.71 670.35 -37.48 669.98 -39.25 669.59 C-42.13 668.97 -45.02 668.38 -47.91 667.8 C-49.9 667.39 -51.89 666.98 -53.88 666.56 C-54.76 666.38 -55.65 666.2 -56.57 666.01 C-64.72 664.27 -71.94 661.69 -80 659 C-80.33 603.23 -80.66 547.46 -81 490 C-98.5 499 -98.5 499 -115.56 508.69 C-116.46 509.22 -117.35 509.75 -118.27 510.3 C-124.81 514.21 -131.21 518.31 -137.52 522.59 C-138.34 523.05 -139.16 523.52 -140 524 C-140.66 523.67 -141.32 523.34 -142 523 C-141.33 522.22 -140.67 521.45 -139.98 520.65 C-134.62 514.38 -129.4 508.03 -124.34 501.52 C-120.06 496.04 -115.64 490.69 -111.21 485.33 C-107.44 480.78 -103.75 476.17 -100.12 471.5 C-88.77 456.95 -88.77 456.95 -83.93 454.34 C-80.69 452.25 -80.69 452.25 -80.24 448.67 C-80.21 447.34 -80.2 446 -80.23 444.66 C-80.22 443.92 -80.21 443.17 -80.19 442.41 C-80.17 440 -80.18 437.61 -80.2 435.2 C-80.18 433.72 -80.17 432.23 -80.15 430.75 C-80.11 425.25 -80.12 419.75 -80.12 414.25 C-80.08 401.96 -80.04 389.66 -80 377 C-128.18 377 -176.36 377 -226 377 C-220.91 403.7 -213.87 429.16 -200.96 453.19 C-200 454.99 -199.09 456.81 -198.18 458.64 C-184.86 485.09 -164.88 506.39 -144 527 C-145.6 530.98 -148.37 533.64 -151.37 536.59 C-152.19 537.41 -152.19 537.41 -153.02 538.25 C-154.83 540.05 -156.64 541.85 -158.45 543.64 C-159.7 544.89 -160.95 546.14 -162.2 547.39 C-165.5 550.68 -168.8 553.96 -172.1 557.23 C-175.47 560.58 -178.83 563.94 -182.19 567.29 C-188.79 573.86 -195.39 580.43 -202 587 C-205.64 585.62 -208.07 584.32 -210.89 581.62 C-211.6 580.95 -212.3 580.28 -213.03 579.59 C-214.13 578.53 -214.13 578.53 -215.25 577.44 C-216.01 576.71 -216.77 575.99 -217.55 575.24 C-219.71 573.17 -221.85 571.09 -224 569 C-225.42 567.63 -225.42 567.63 -226.87 566.22 C-247.42 545.99 -263.76 521.52 -277 496 C-277.56 494.91 -277.56 494.91 -278.14 493.81 C-314.75 422.2 -319.63 339.59 -303 262 C-302.82 261.13 -302.64 260.26 -302.45 259.37 C-286.89 185.4 -243.71 113.72 -184 67 C-183.13 66.31 -182.25 65.62 -181.36 64.91 C-148.8 39.78 -111.79 22.81 -72.23 12.15 C-68.5 11.15 -64.82 10.05 -61.12 8.94 C-52.2 6.38 -43.12 4.67 -34 3 C-33.17 2.85 -32.34 2.69 -31.49 2.53 C-29.06 2.09 -26.62 1.67 -24.19 1.25 C-23.48 1.12 -22.78 0.99 -22.06 0.86 C-14.53 -0.36 -7.93 0 0 0 Z " fill="#8B1010" transform="translate(730,344)"/>
<path d="M0 0 C20.91 1.16 20.91 1.16 29.31 2.75 C30.28 2.93 31.25 3.11 32.24 3.29 C35.17 3.84 38.08 4.41 41 5 C41.85 5.17 42.71 5.34 43.59 5.51 C55.31 7.91 66.65 11.37 78 15.12 C78.66 15.34 79.32 15.56 80 15.79 C95.99 21.08 95.99 21.08 97.88 24.68 C98.74 26.91 99.45 29.15 100.13 31.43 C100.4 32.3 100.68 33.16 100.96 34.05 C101.85 36.84 102.71 39.64 103.56 42.44 C104.39 45.09 105.23 47.74 106.06 50.39 C106.66 52.3 107.27 54.22 107.87 56.13 C110.62 64.9 113.51 73.62 116.43 82.33 C116.8 83.44 116.8 83.44 117.18 84.58 C117.43 85.34 117.69 86.1 117.95 86.88 C118.48 88.47 119.01 90.06 119.55 91.65 C119.96 92.88 119.96 92.88 120.37 94.13 C126.12 111.33 131.79 128.55 137.47 145.77 C139.29 151.3 141.12 156.82 142.94 162.35 C144.36 166.66 145.79 170.97 147.21 175.28 C147.88 177.32 148.55 179.36 149.23 181.4 C150.16 184.22 151.09 187.05 152.03 189.87 C152.3 190.7 152.57 191.52 152.85 192.37 C154.34 196.89 155.73 201.42 157 206 C179.61 149.04 179.61 149.04 202 92 C206 92 206 92 207.63 93.16 C208.15 93.69 208.67 94.23 209.21 94.78 C209.79 95.37 210.37 95.96 210.97 96.57 C211.58 97.21 212.19 97.84 212.81 98.5 C213.44 99.15 214.07 99.79 214.72 100.46 C218.97 104.84 223.09 109.3 227 114 C227.73 114.85 228.46 115.71 229.21 116.59 C240.57 129.97 250.79 144.05 260 159 C260.44 159.71 260.88 160.43 261.34 161.16 C278.06 188.46 290.76 218.07 299 249 C299.25 249.95 299.51 250.9 299.77 251.88 C304.52 270.07 307.08 288.33 309 307 C309.16 308.49 309.16 308.49 309.32 310.02 C310.14 318.61 310.2 327.19 310.19 335.81 C310.19 336.58 310.19 337.36 310.18 338.15 C310.04 392.42 297.31 444.91 272 493 C271.23 494.49 270.45 495.98 269.68 497.47 C268.89 498.98 268.1 500.49 267.31 502 C266.96 502.68 266.6 503.36 266.23 504.07 C263.7 508.85 260.92 513.44 258 518 C253.19 516.41 249.5 513.69 245.44 510.75 C243.92 509.66 242.39 508.57 240.87 507.48 C240.08 506.91 239.28 506.34 238.46 505.76 C234.33 502.81 230.16 499.91 226 497 C218.91 492.04 211.83 487.07 204.77 482.07 C199.52 478.37 194.27 474.68 189 471 C189.55 465.91 192.02 462.19 194.56 457.88 C206.79 436.41 214.08 412.88 220 389 C217.03 389 214.06 389 211 389 C211 388.67 211 388.34 211 388 C231.29 387.5 231.29 387.5 252 387 C214.14 380.61 177.95 376.76 139.6 376.69 C138.21 376.69 136.83 376.69 135.44 376.68 C118.52 376.63 101.82 377.03 85 379 C84.29 379.08 83.58 379.16 82.85 379.24 C78.54 379.74 74.24 380.29 69.94 380.88 C68.67 381.05 67.4 381.22 66.09 381.39 C55.31 382.89 44.65 384.76 34 387 C33.28 387.15 32.55 387.3 31.81 387.45 C26.52 388.55 21.26 389.75 16 391 C15.07 391.22 14.13 391.44 13.17 391.67 C-6.09 396.25 -24.73 402.36 -43.44 408.78 C-46.62 409.87 -49.81 410.94 -53 412 C-53 408.37 -53 404.74 -53 401 C-37.16 395.13 -21.25 389.76 -5.07 384.93 C-1.81 383.94 1.45 382.94 4.7 381.93 C9.78 380.36 14.87 378.89 20 377.5 C25.3 376.05 30.57 374.54 35.81 372.88 C51.43 368 51.43 368 59 368 C59 369.65 59 371.3 59 373 C59.66 373.33 60.32 373.66 61 374 C61 371.69 61 369.38 61 367 C97.42 358.21 135.56 352.87 173.07 352.83 C174.87 352.83 174.87 352.83 176.71 352.82 C179.24 352.82 181.77 352.81 184.3 352.81 C188.07 352.81 191.84 352.79 195.61 352.78 C212.5 352.74 229.17 353.55 246 355 C221.83 351.58 197.79 350.6 173.42 350.62 C171.22 350.62 169.02 350.62 166.82 350.62 C142.17 350.61 117.69 351.57 93.31 355.5 C90.56 355.93 87.8 356.36 85.05 356.78 C84.39 356.88 83.74 356.99 83.06 357.09 C75.73 358.22 68.37 359.11 61 360 C61 350.76 61 341.52 61 332 C57.37 332 53.74 332 50 332 C50 336.95 50 341.9 50 347 C37.79 347 25.58 347 13 347 C13 350.96 13 354.92 13 359 C25.21 359 37.42 359 50 359 C50 360.32 50 361.64 50 363 C48.41 363.4 48.41 363.4 46.79 363.81 C28.38 368.54 9.94 373.57 -7.89 380.19 C-11.24 381.43 -14.47 382.42 -18 383 C-13.73 377.18 -9.26 371.54 -4.74 365.92 C0.1 359.89 4.88 353.82 9.64 347.73 C11.92 344.82 14.21 341.91 16.5 339 C19.76 334.85 23.02 330.7 26.28 326.55 C27.21 325.35 28.15 324.17 29.1 322.98 C31.14 320.42 33.07 317.89 34.87 315.14 C40.56 306.77 48.65 303.96 58 301 C58.99 301 59.98 301 61 301 C60.89 299.66 60.89 299.66 60.78 298.3 C60.69 297.13 60.6 295.96 60.5 294.75 C60.41 293.59 60.31 292.43 60.22 291.23 C59.81 285.18 60.58 282.7 64.31 278.12 C64.76 277.56 65.21 276.99 65.67 276.41 C66.63 275.21 67.58 274.01 68.55 272.81 C70.41 270.49 72.24 268.14 74.08 265.8 C75.45 264.04 76.83 262.29 78.21 260.54 C80.52 257.61 82.83 254.68 85.13 251.75 C86.04 250.59 86.95 249.43 87.86 248.27 C90.22 245.27 92.58 242.26 94.93 239.25 C95.89 238.02 96.85 236.79 97.81 235.56 C98.27 234.97 98.73 234.39 99.21 233.78 C101.59 230.75 104.02 227.77 106.56 224.88 C109.2 221.99 109.2 221.99 111 218 C94.5 218 78 218 61 218 C61 214.7 61 211.4 61 208 C45.16 208 29.32 208 13 208 C13 211.96 13 215.92 13 220 C8.71 220 4.42 220 0 220 C0 147.4 0 74.8 0 0 Z " fill="#027FBD" transform="translate(783,344)"/>
<path d="M0 0 C0 82.5 0 165 0 250 C-5.94 251.65 -11.88 253.3 -18 255 C-20.38 255.71 -22.77 256.42 -25.22 257.15 C-32.22 259.15 -39.26 260.45 -46.44 261.62 C-47.7 261.84 -48.97 262.05 -50.27 262.27 C-72.8 266 -72.8 266 -81 266 C-81.33 185.81 -81.66 105.62 -82 23 C-69.33 18.97 -56.8 15.01 -43.99 11.55 C-41.01 10.73 -38.04 9.86 -35.06 9 C-3.71 0 -3.71 0 0 0 Z " fill="#0480BD" transform="translate(864,752)"/>
<path d="M0 0 C0 63.36 0 126.72 0 192 C-48.51 192 -97.02 192 -147 192 C-146.15 183.49 -144.75 176.12 -142.56 167.94 C-142.39 167.29 -142.21 166.63 -142.03 165.96 C-131.84 128.14 -113.02 92.1 -86.2 63.37 C-84.33 61.35 -82.53 59.29 -80.74 57.21 C-69.96 44.86 -57.38 34.39 -44 25 C-43.32 24.52 -42.65 24.03 -41.95 23.53 C-8.97 0 -8.97 0 0 0 Z " fill="#FEFDFD" transform="translate(650,449)"/>
<path d="M0 0 C15.51 0 31.02 0 47 0 C47.15 5.63 47.15 5.63 47.31 11.38 C47.36 12.54 47.4 13.7 47.45 14.9 C47.57 23.87 44.9 29.65 40 37 C54.43 37.13 68.83 36.94 83.25 36.5 C99.17 36.02 115.07 35.89 131 36 C131 32.04 131 28.08 131 24 C146.84 24 162.68 24 179 24 C179 27.3 179 30.6 179 34 C204.25 33.5 204.25 33.5 230 33 C224.43 39.68 224.43 39.68 221.62 42 C217.56 45.47 213.65 49.09 209.75 52.75 C203.21 58.88 196.62 64.95 190 71 C183.61 76.84 177.24 82.7 170.88 88.56 C170.04 89.33 170.04 89.33 169.19 90.12 C167.09 92.05 165.02 93.98 163 96 C166.96 97.98 170.92 99.96 175 102 C175 102.66 175 103.32 175 104 C171.42 103.56 168.74 102.88 165.44 101.38 C161.82 99.93 160.59 99.74 157 101 C156.3 101.37 155.6 101.74 154.88 102.12 C153 103 153 103 150 102 C150.18 103.05 150.18 103.05 150.36 104.12 C149.84 108.31 147.27 110.31 144.31 113.06 C143.78 113.58 143.25 114.1 142.71 114.63 C134.01 123 134.01 123 131 123 C130.73 123.6 130.46 124.2 130.18 124.82 C129 127 127.91 128.27 126.09 129.93 C125.5 130.47 124.91 131.01 124.3 131.57 C123.67 132.14 123.03 132.72 122.38 133.31 C121.01 134.56 119.65 135.82 118.29 137.07 C117.58 137.72 116.87 138.36 116.15 139.03 C112.67 142.22 109.25 145.46 105.81 148.69 C99.25 154.84 92.64 160.94 86 167 C84.02 168.81 82.04 170.62 80.06 172.44 C79.57 172.89 79.08 173.34 78.57 173.81 C74.87 177.2 71.18 180.6 67.5 184 C60.86 190.14 54.19 196.25 47.52 202.35 C41.29 208.06 35.06 213.78 28.86 219.52 C24.27 223.76 19.67 227.97 15.06 232.19 C12.87 234.2 10.68 236.22 8.5 238.25 C7.62 239.06 7.62 239.06 6.73 239.89 C5.61 240.94 4.48 241.98 3.36 243.03 C0.68 245.52 -2.02 247.88 -5 250 C-3.44 244.94 -0.35 241.48 3 237.5 C4.19 236.07 5.37 234.63 6.55 233.2 C7.14 232.49 7.73 231.78 8.33 231.04 C10.65 228.2 12.9 225.3 15.12 222.38 C19.89 216.13 24.74 209.94 29.61 203.77 C31.91 200.85 34.2 197.92 36.5 195 C37.42 193.83 38.33 192.67 39.25 191.5 C39.7 190.92 40.16 190.35 40.62 189.75 C44.75 184.5 44.75 184.5 46.05 182.85 C46.96 181.68 47.87 180.52 48.77 179.34 C51.02 176.42 53.29 173.64 55.9 171.02 C65.52 160.95 65.54 151.49 65.29 138.07 C65.29 135.98 65.3 133.9 65.31 131.81 C65.33 126.36 65.28 120.91 65.22 115.46 C65.17 109.89 65.18 104.31 65.18 98.73 C65.18 87.82 65.11 76.91 65 66 C54.77 66 44.54 66 34 66 C34 57.75 34 49.5 34 41 C32.35 41.66 30.7 42.32 29 43 C21.85 43.87 15.56 43.91 9.64 39.48 C4.33 34.69 0.36 29.39 -0.24 22.09 C-0.29 18.74 -0.26 15.41 -0.19 12.06 C-0.13 8.08 -0.06 4.1 0 0 Z " fill="#C01C2E" transform="translate(665,528)"/>
<path d="M0 0 C0.7 -0 1.4 -0 2.13 -0 C37.46 0.01 71.39 2.81 106.26 8.63 C107.08 8.76 107.9 8.9 108.75 9.03 C112.49 9.68 115.6 10.45 118.94 12.25 C117.66 12.28 116.38 12.3 115.06 12.33 C110.24 12.42 105.41 12.52 100.59 12.62 C98.52 12.67 96.44 12.71 94.37 12.75 C73.91 13.15 54.4 14.69 33.94 17.25 C27.34 33.75 20.74 50.25 13.94 67.25 C7.49 60.8 5.56 46.79 3.07 38.13 C2.17 35.01 1.19 31.94 0.12 28.88 C-1.06 25.25 -1.06 25.25 -1.06 22.25 C-20.28 25.17 -39.11 29.12 -58.04 33.55 C-60.63 34.15 -63.22 34.74 -65.81 35.32 C-74.99 37.38 -83.95 39.94 -92.94 42.7 C-97.03 43.95 -101.14 45.11 -105.26 46.25 C-143.97 56.97 -181.47 71.78 -218.06 88.25 C-218.67 88.52 -219.27 88.79 -219.9 89.07 C-248.67 102.04 -276.8 116.34 -304.06 132.25 C-305.07 132.83 -306.07 133.42 -307.1 134.02 C-310.15 135.8 -313.2 137.58 -316.25 139.38 C-317.64 140.19 -317.64 140.19 -319.06 141.03 C-319.92 141.54 -320.78 142.05 -321.67 142.57 C-322.42 143.02 -323.18 143.46 -323.95 143.92 C-326.08 145.26 -328.07 146.71 -330.06 148.25 C-330.72 147.92 -331.38 147.59 -332.06 147.25 C-331.4 146.47 -330.73 145.7 -330.04 144.9 C-324.68 138.63 -319.46 132.28 -314.4 125.77 C-310.13 120.29 -305.7 114.94 -301.27 109.58 C-297.5 105.03 -293.82 100.42 -290.19 95.75 C-289.29 94.61 -288.39 93.47 -287.49 92.33 C-286.03 90.48 -284.59 88.62 -283.17 86.73 C-277.72 79.94 -270.8 75.91 -263.36 71.59 C-261.04 70.24 -258.74 68.86 -256.45 67.48 C-211.52 40.79 -161.56 22.76 -110.6 11.8 C-108.2 11.28 -105.81 10.74 -103.42 10.2 C-84.28 5.9 -64.6 3 -45.06 1.25 C-44.15 1.16 -43.24 1.08 -42.3 0.99 C-28.23 -0.16 -14.1 0 0 0 Z " fill="#373636" transform="translate(920.0625,719.75)"/>
<path d="M0 0 C0 4.12 -1.63 5.23 -4.31 8.31 C-5.24 9.39 -6.16 10.48 -7.09 11.56 C-7.81 12.41 -7.81 12.41 -8.55 13.27 C-10.91 16.08 -13.18 18.98 -15.44 21.88 C-16.12 22.75 -16.12 22.75 -16.82 23.65 C-17.75 24.84 -18.68 26.03 -19.61 27.22 C-21.9 30.15 -24.2 33.08 -26.5 36 C-27.41 37.16 -28.32 38.32 -29.23 39.48 C-31.13 41.89 -33.03 44.3 -34.93 46.71 C-36.8 49.09 -38.67 51.47 -40.54 53.86 C-42.03 55.76 -43.54 57.66 -45.06 59.55 C-45.62 60.26 -46.17 60.96 -46.75 61.69 C-47.22 62.27 -47.69 62.85 -48.17 63.45 C-48.45 63.96 -48.72 64.47 -49 65 C-48.67 65.99 -48.34 66.98 -48 68 C-47.93 70.23 -47.92 72.46 -47.94 74.69 C-47.95 75.87 -47.96 77.05 -47.96 78.26 C-47.98 79.62 -47.98 79.62 -48 81 C-48.54 81.16 -49.08 81.32 -49.63 81.48 C-63.51 85.77 -71.43 91.03 -79.62 103 C-81.67 105.97 -83.9 108.79 -86.12 111.62 C-86.92 112.67 -87.72 113.72 -88.54 114.79 C-92.51 119.98 -96.57 125.1 -100.61 130.23 C-102.45 132.57 -104.29 134.91 -106.13 137.26 C-107.04 138.41 -107.95 139.57 -108.85 140.72 C-111.26 143.79 -113.67 146.85 -116.07 149.92 C-116.57 150.56 -117.07 151.2 -117.59 151.86 C-118.55 153.09 -119.51 154.33 -120.47 155.56 C-122.24 157.81 -123.97 159.97 -126 162 C-124.17 161.39 -124.17 161.39 -122.3 160.77 C-120.54 160.18 -118.77 159.59 -117 159 C-115.55 158.52 -115.55 158.52 -114.07 158.02 C-100.78 153.61 -87.5 149.45 -73.94 145.94 C-72.21 145.49 -72.21 145.49 -70.44 145.03 C-62.42 143 -62.42 143 -59 143 C-59 141.68 -59 140.36 -59 139 C-71.21 139 -83.42 139 -96 139 C-96 135.04 -96 131.08 -96 127 C-83.79 127 -71.58 127 -59 127 C-59 122.05 -59 117.1 -59 112 C-55.37 112 -51.74 112 -48 112 C-48 121.24 -48 130.48 -48 140 C-45.75 139.6 -43.5 139.2 -41.19 138.79 C-13.15 133.86 -13.15 133.86 0.06 132.19 C0.92 132.08 1.78 131.96 2.66 131.85 C22.21 129.51 41.96 129.72 61.62 129.69 C62.37 129.69 63.12 129.68 63.9 129.68 C90.47 129.62 116.74 130.51 143 135 C143 135.33 143 135.66 143 136 C139.58 135.86 136.17 135.71 132.75 135.56 C131.8 135.52 130.85 135.48 129.88 135.44 C125.05 135.23 120.25 134.95 115.44 134.49 C108.97 133.94 102.54 133.84 96.05 133.83 C94.85 133.83 93.64 133.83 92.39 133.82 C89.84 133.82 87.29 133.81 84.74 133.81 C80.93 133.81 77.13 133.79 73.32 133.78 C49.28 133.72 25.68 135.64 1.88 138.81 C0.4 139.01 0.4 139.01 -1.11 139.2 C-15.29 141.06 -29.29 143.22 -43.19 146.64 C-45 147 -45 147 -48 147 C-48 149.31 -48 151.62 -48 154 C-51.3 154 -54.6 154 -58 154 C-58 153.67 -58 153.34 -58 153 C-55.36 153 -52.72 153 -50 153 C-50 151.35 -50 149.7 -50 148 C-69.42 152.69 -88.56 158.08 -107.65 163.97 C-111.01 165 -114.37 166.02 -117.73 167.04 C-142.49 174.58 -166.47 183.17 -190 194 C-191 194.46 -192 194.91 -193.03 195.38 C-204.44 200.63 -215.52 206.17 -226.24 212.74 C-226.97 213.18 -227.7 213.62 -228.46 214.08 C-229.1 214.47 -229.74 214.87 -230.39 215.28 C-231.19 215.64 -231.19 215.64 -232 216 C-232.66 215.67 -233.32 215.34 -234 215 C-233.45 214.51 -232.9 214.03 -232.34 213.52 C-226.38 208.19 -220.52 202.77 -214.68 197.3 C-208.82 191.83 -202.92 186.41 -197 181 C-195.02 179.19 -193.04 177.38 -191.06 175.56 C-190.57 175.11 -190.08 174.66 -189.57 174.19 C-185.87 170.8 -182.18 167.4 -178.5 164 C-171.86 157.86 -165.19 151.75 -158.52 145.65 C-152.29 139.94 -146.06 134.22 -139.86 128.48 C-136.24 125.15 -132.63 121.82 -129 118.5 C-123.76 113.7 -118.53 108.89 -113.32 104.06 C-111.04 101.95 -108.75 99.85 -106.46 97.75 C-105.88 97.22 -105.3 96.68 -104.71 96.13 C-103.61 95.12 -102.5 94.11 -101.4 93.1 C-99.03 90.92 -96.71 88.71 -94.44 86.44 C-92.01 84.01 -89.5 81.72 -86.94 79.44 C-80 73.89 -80 73.89 -77 66 C-75.86 66.09 -75.86 66.09 -74.69 66.19 C-71.95 66.31 -71.95 66.31 -70.62 64.44 C-69 63 -69 63 -65.94 63.06 C-61.06 63.98 -56.53 66.04 -52 68 C-52 67.34 -52 66.68 -52 66 C-52.6 65.82 -53.21 65.64 -53.83 65.45 C-54.63 65.2 -55.43 64.95 -56.25 64.69 C-57.04 64.44 -57.83 64.2 -58.64 63.95 C-61.13 62.95 -62.93 61.69 -65 60 C-63.34 58.31 -61.67 56.62 -60 54.94 C-59.31 54.24 -59.31 54.24 -58.61 53.53 C-55.23 50.12 -51.69 46.95 -48.06 43.81 C-44.67 40.83 -41.4 37.73 -38.12 34.62 C-33.02 29.81 -27.88 25.06 -22.64 20.39 C-18.46 16.61 -14.36 12.74 -10.26 8.87 C-6.95 5.76 -3.61 2.78 0 0 Z " fill="#373536" transform="translate(892,564)"/>
<path d="M0 0 C1.5 0.01 3 0.01 4.5 0.01 C8.08 0.02 11.67 0.04 15.25 0.06 C16.98 26.02 16.98 26.02 13.48 32 C11.38 34.39 9.2 36.52 6.79 38.6 C3.75 41.48 1.41 44.95 -1.06 48.31 C-5.86 54.66 -10.8 60.87 -15.85 67.02 C-20.53 72.73 -25.01 78.58 -29.44 84.48 C-29.94 85.15 -30.45 85.82 -30.97 86.52 C-31.41 87.11 -31.85 87.69 -32.31 88.3 C-33.98 90.35 -35.88 92.19 -37.75 94.06 C-37.75 63.37 -37.75 32.68 -37.75 1.06 C-25.11 0.43 -12.63 -0.08 0 0 Z " fill="#FEFDFD" transform="translate(767.75,592.9375)"/>
<path d="M0 0 C2 1 2 1 2.75 2.65 C2.99 3.37 3.23 4.09 3.47 4.84 C3.75 5.66 4.02 6.48 4.31 7.33 C4.6 8.24 4.9 9.15 5.2 10.09 C5.52 11.03 5.83 11.98 6.16 12.96 C7.2 16.1 8.22 19.24 9.25 22.38 C9.96 24.54 10.68 26.71 11.4 28.88 C13.24 34.48 15.08 40.08 16.91 45.68 C18.3 49.93 19.71 54.18 21.11 58.42 C22.4 62.33 23.68 66.24 24.96 70.15 C25.57 72 26.17 73.84 26.78 75.68 C27.62 78.25 28.47 80.83 29.3 83.4 C29.55 84.14 29.79 84.89 30.05 85.65 C31.69 90.71 32.93 95.79 34 101 C29.73 101.58 25.46 102.15 21.19 102.71 C19.75 102.9 18.3 103.1 16.85 103.29 C14.75 103.57 12.66 103.85 10.56 104.12 C9.31 104.29 8.05 104.46 6.75 104.63 C4.03 104.9 1.49 105.04 -1.23 105.02 C-2.48 105.02 -3.72 105.01 -5 105 C-5.12 92.2 -5.2 79.39 -5.26 66.59 C-5.29 60.64 -5.32 54.7 -5.38 48.75 C-5.43 43.01 -5.46 37.27 -5.47 31.54 C-5.48 29.35 -5.5 27.16 -5.53 24.97 C-5.56 21.9 -5.57 18.84 -5.57 15.77 C-5.59 14.86 -5.6 13.96 -5.62 13.03 C-5.59 8.62 -5.33 5.86 -2.46 2.39 C-1.24 1.21 -1.24 1.21 0 0 Z " fill="#FCFDFE" transform="translate(869,595)"/>
<path d="M0 0 C1.8 4.55 3.34 9.06 4.61 13.79 C5 15.26 5 15.26 5.4 16.76 C5.7 17.87 5.7 17.87 6 19 C5.1 19.03 4.21 19.07 3.28 19.1 C-27.47 20.36 -57.87 23.55 -88 30 C-89.44 30.3 -90.87 30.59 -92.31 30.89 C-96.89 31.86 -101.45 32.92 -106 34 C-106.93 34.22 -107.87 34.44 -108.83 34.67 C-128.09 39.25 -146.73 45.36 -165.44 51.78 C-168.62 52.87 -171.81 53.94 -175 55 C-175 51.37 -175 47.74 -175 44 C-159.16 38.13 -143.25 32.76 -127.07 27.93 C-123.81 26.94 -120.55 25.94 -117.3 24.93 C-112.22 23.36 -107.13 21.89 -102 20.5 C-96.7 19.05 -91.43 17.54 -86.19 15.88 C-70.57 11 -70.57 11 -63 11 C-63 12.65 -63 14.3 -63 16 C-62.34 16.33 -61.68 16.66 -61 17 C-61 14.69 -61 12.38 -61 10 C-18.12 -0.35 -18.12 -0.35 0 0 Z " fill="#057EBA" transform="translate(905,701)"/>
<path d="M0 0 C7.39 4.49 13 9.3 15.19 17.94 C16.16 25.78 15.32 32.65 10.61 39.1 C6.49 44.03 2.62 47.64 -3.81 48.94 C-11.49 49.56 -18.53 49.86 -24.81 44.94 C-31.22 38.97 -34.87 33.02 -35.31 24.12 C-35.09 16.79 -32.85 11.24 -27.88 5.83 C-19.72 -1.66 -10.7 -2.98 0 0 Z " fill="#047CB9" transform="translate(829.8125,846.0625)"/>
<path d="M0 0 C15.51 0 31.02 0 47 0 C47.15 5.63 47.15 5.63 47.31 11.38 C47.36 12.54 47.4 13.7 47.45 14.9 C47.57 23.76 45.23 29.98 39.69 36.88 C33.04 42.13 27.71 43.74 19.12 43.45 C13.1 42.58 9.21 39.53 5.19 35.12 C-0.23 27.39 -0.39 21.33 -0.19 12.06 C-0.13 8.08 -0.06 4.1 0 0 Z " fill="#871315" transform="translate(665,528)"/>
<path d="M0 0 C15.18 0 30.36 0 46 0 C46.06 4.5 46.12 8.99 46.19 13.62 C46.23 15.74 46.23 15.74 46.27 17.89 C46.28 19.01 46.29 20.13 46.29 21.29 C46.31 22.43 46.32 23.57 46.34 24.75 C45.88 29.15 44.31 32.42 41.5 35.81 C38.39 38.28 34.92 38.32 31.07 38.3 C27.65 37.8 25.67 36.13 23 34 C22.67 34.99 22.34 35.98 22 37 C17.71 39.85 12.96 39.65 8 39 C4.03 36.72 2.02 34.06 0 30 C-0.34 26.68 -0.34 26.68 -0.29 22.95 C-0.28 21.14 -0.28 21.14 -0.27 19.3 C-0.24 17.77 -0.22 16.25 -0.19 14.69 C-0.13 9.84 -0.06 4.99 0 0 Z " fill="#861315" transform="translate(665,463)"/>
<path d="M0 0 C0.66 0.33 1.32 0.66 2 1 C2.65 3.21 2.65 3.21 3.22 6.15 C3.43 7.23 3.64 8.31 3.85 9.41 C4.07 10.58 4.28 11.74 4.5 12.94 C4.83 14.73 4.83 14.73 5.17 16.56 C5.8 20.03 6.41 23.52 7 27 C7.14 27.81 7.28 28.62 7.42 29.46 C10.04 45.43 9.19 61.87 9 78 C0.75 78.17 -7.4 77.63 -15.62 77 C-16.92 76.9 -18.21 76.81 -19.54 76.71 C-22.69 76.48 -25.85 76.24 -29 76 C-28.42 71.8 -27.44 68.18 -25.84 64.26 C-25.15 62.56 -25.15 62.56 -24.46 60.83 C-23.95 59.6 -23.44 58.36 -22.94 57.12 C-22.41 55.83 -21.89 54.54 -21.37 53.25 C-20.52 51.16 -19.67 49.06 -18.82 46.97 C-15.3 38.28 -11.82 29.57 -8.34 20.85 C-6.59 16.47 -4.83 12.08 -3.08 7.7 C-2.48 6.2 -1.88 4.7 -1.28 3.2 C-0.86 2.14 -0.43 1.09 0 0 Z " fill="#F9FCFD" transform="translate(1000,618)"/>
<path d="M0 0 C3.63 0 7.26 0 11 0 C11 9.24 11 18.48 11 28 C13.25 27.6 15.5 27.2 17.81 26.79 C45.85 21.86 45.85 21.86 59.06 20.19 C60.35 20.02 60.35 20.02 61.66 19.85 C81.21 17.51 100.96 17.72 120.62 17.69 C121.37 17.69 122.12 17.68 122.9 17.68 C149.47 17.62 175.74 18.51 202 23 C202 23.33 202 23.66 202 24 C198.58 23.86 195.17 23.71 191.75 23.56 C190.8 23.52 189.85 23.48 188.88 23.44 C184.05 23.23 179.25 22.95 174.44 22.49 C167.97 21.94 161.54 21.84 155.05 21.83 C153.85 21.83 152.64 21.83 151.39 21.82 C148.84 21.82 146.29 21.81 143.74 21.81 C139.93 21.81 136.13 21.79 132.32 21.78 C108.28 21.72 84.68 23.64 60.88 26.81 C59.89 26.94 58.9 27.07 57.89 27.2 C43.71 29.06 29.71 31.22 15.81 34.64 C14 35 14 35 11 35 C11 37.31 11 39.62 11 42 C7.7 42 4.4 42 1 42 C1 41.67 1 41.34 1 41 C3.64 41 6.28 41 9 41 C9 39.35 9 37.7 9 36 C6.03 36.66 3.06 37.32 0 38 C0 34.37 0 30.74 0 27 C-12.21 27 -24.42 27 -37 27 C-37 23.04 -37 19.08 -37 15 C-24.79 15 -12.58 15 0 15 C0 10.05 0 5.1 0 0 Z " fill="#623042" transform="translate(833,676)"/>
<path d="M0 0 C6.08 1.95 12.02 4.13 17.94 6.54 C19.15 7.03 19.15 7.03 20.38 7.53 C22.06 8.21 23.75 8.89 25.43 9.58 C28.02 10.63 30.61 11.68 33.2 12.73 C34.84 13.39 36.48 14.06 38.12 14.73 C38.9 15.04 39.68 15.35 40.48 15.68 C45.88 17.88 45.88 17.88 47 19 C47.07 21.02 47.08 23.04 47.06 25.06 C47.05 26.17 47.04 27.27 47.04 28.41 C47.02 29.26 47.01 30.12 47 31 C31.46 37.68 15.87 44.12 0 50 C0 45.71 0 41.42 0 37 C3.3 35.68 6.6 34.36 10 33 C10.33 27.39 10.66 21.78 11 16 C9.37 15.53 7.74 15.05 6.06 14.56 C1.12 13.12 1.12 13.12 0 12 C-0.07 9.98 -0.08 7.96 -0.06 5.94 C-0.05 4.83 -0.04 3.73 -0.04 2.59 C-0.02 1.74 -0.01 0.88 0 0 Z " fill="#871315" transform="translate(665,390)"/>
<path d="M0 0 C0.73 0 1.46 0 2.21 0 C4.53 0.01 6.85 0.02 9.18 0.04 C10.75 0.04 12.33 0.04 13.9 0.05 C17.77 0.06 21.63 0.08 25.49 0.1 C25.49 3.73 25.49 7.36 25.49 11.1 C24.7 11.12 23.92 11.14 23.1 11.16 C19.52 11.25 15.94 11.36 12.36 11.47 C10.51 11.52 10.51 11.52 8.61 11.57 C7.41 11.61 6.22 11.64 4.98 11.68 C3.88 11.72 2.78 11.75 1.65 11.78 C-1.71 12.12 -4.41 12.77 -7.51 14.1 C-9.99 17.82 -9.98 19.7 -9.51 24.1 C-7.62 26.75 -6.42 27.86 -3.25 28.68 C-0.26 29.14 2.64 29.31 5.66 29.41 C6.82 29.46 7.98 29.5 9.17 29.54 C10.37 29.58 11.57 29.62 12.8 29.66 C14.02 29.7 15.24 29.75 16.49 29.79 C19.49 29.9 22.49 30 25.49 30.1 C25.49 33.73 25.49 37.36 25.49 41.1 C21.08 41.2 16.67 41.27 12.26 41.32 C10.76 41.34 9.26 41.36 7.76 41.4 C-9.52 41.79 -9.52 41.79 -16.01 35.68 C-20.95 30.21 -21.98 25.03 -21.82 17.88 C-21.04 10.87 -17.53 6.58 -12.2 2.23 C-8.36 -0.35 -4.43 -0.03 0 0 Z " fill="#881213" transform="translate(685.51171875,596.90234375)"/>
<path d="M0 0 C0 4.29 0 8.58 0 13 C-29.74 25 -29.74 25 -33 25 C-33 25.66 -33 26.32 -33 27 C-32.31 27.11 -31.62 27.23 -30.91 27.34 C-27.57 28.1 -24.57 29.24 -21.39 30.5 C-20.47 30.87 -20.47 30.87 -19.52 31.24 C-17.58 32.01 -15.63 32.79 -13.69 33.56 C-12.36 34.09 -11.04 34.61 -9.71 35.14 C-6.47 36.42 -3.24 37.71 0 39 C0 43.29 0 47.58 0 52 C-10.95 48.05 -21.7 43.69 -32.44 39.19 C-33.15 38.89 -33.86 38.6 -34.59 38.29 C-36.62 37.44 -38.65 36.59 -40.68 35.73 C-41.88 35.23 -43.07 34.73 -44.29 34.21 C-47 33 -47 33 -48 32 C-48.07 29.81 -48.08 27.62 -48.06 25.44 C-48.05 24.24 -48.04 23.04 -48.04 21.81 C-48.02 20.88 -48.01 19.95 -48 19 C-35.54 13.68 -23.07 8.37 -10.5 3.31 C-9.67 2.97 -8.83 2.64 -7.97 2.29 C-2.24 0 -2.24 0 0 0 Z " fill="#067BB6" transform="translate(844,915)"/>
<path d="M0 0 C1.04 -0 1.04 -0 2.1 -0 C3.57 -0 5.04 -0 6.51 0 C8.74 0.01 10.98 0 13.21 -0 C14.64 -0 16.07 -0 17.5 0 C18.8 0 20.1 0 21.43 0 C25.1 0.13 28.53 0.54 32.15 1.13 C32.59 10.42 30.92 19.06 29.15 28.13 C23.97 28.21 19.1 27.97 13.96 27.26 C4.05 25.93 -5.9 25.04 -15.85 24.13 C-14.17 18.36 -12.41 12.68 -10.23 7.07 C-9.59 5.41 -9.59 5.41 -8.94 3.72 C-6.95 -1.01 -4.97 0 0 0 Z " fill="#FAFBFB" transform="translate(975.8515625,696.8671875)"/>
<path d="M0 0 C15.84 0 31.68 0 48 0 C48 12.54 48 25.08 48 38 C44.37 38 40.74 38 37 38 C37 29.42 37 20.84 37 12 C34.36 12 31.72 12 29 12 C29 17.61 29 23.22 29 29 C25.37 29 21.74 29 18 29 C18 23.39 18 17.78 18 12 C12.06 12 6.12 12 0 12 C0 8.04 0 4.08 0 0 Z " fill="#057BB7" transform="translate(796,785)"/>
<path d="M0 0 C-6.6 16.5 -13.2 33 -20 50 C-26.45 43.55 -28.37 29.54 -30.86 20.88 C-31.76 17.76 -32.75 14.69 -33.81 11.62 C-35 8 -35 8 -35 5 C-36.32 4.67 -37.64 4.34 -39 4 C-33.93 3.26 -28.86 2.53 -23.78 1.81 C-22.06 1.56 -20.33 1.31 -18.61 1.06 C-16.13 0.7 -13.65 0.35 -11.17 -0 C-10.01 -0.18 -10.01 -0.18 -8.83 -0.35 C-5.47 -0.82 -3.26 -1.09 0 0 Z " fill="#047FBC" transform="translate(954,737)"/>
<path d="M0 0 C15.84 0 31.68 0 48 0 C48 3.3 48 6.6 48 10 C49.65 10 51.3 10 53 10 C53 10.33 53 10.66 53 11 C48.48 12.14 44.05 12.13 39.42 12.1 C38.2 12.1 38.2 12.1 36.95 12.09 C34.36 12.09 31.78 12.08 29.19 12.06 C27.43 12.06 25.67 12.05 23.91 12.05 C19.61 12.04 15.3 12.02 11 12 C11 20.25 11 28.5 11 37 C7.37 37 3.74 37 0 37 C0 24.79 0 12.58 0 0 Z " fill="#991419" transform="translate(796,552)"/>
<path d="M0 0 C1.8 4.55 3.34 9.06 4.61 13.79 C4.87 14.77 5.13 15.75 5.4 16.76 C5.6 17.5 5.8 18.24 6 19 C1.07 19.29 -3.85 19.57 -8.78 19.85 C-10.45 19.95 -12.12 20.05 -13.79 20.15 C-22.87 20.68 -31.9 21.13 -41 21 C-41 16.05 -41 11.1 -41 6 C-36.17 4.62 -32.04 3.6 -27.15 2.93 C-25.25 2.67 -25.25 2.67 -23.32 2.4 C-21.37 2.14 -21.37 2.14 -19.38 1.88 C-18.05 1.69 -16.73 1.51 -15.41 1.32 C-4.82 -0.12 -4.82 -0.12 0 0 Z " fill="#FAFBFB" transform="translate(905,701)"/>
<path d="M0 0 C0.75 -0 1.5 -0 2.27 -0.01 C28.84 -0.07 55.12 0.82 81.38 5.31 C81.38 5.64 81.38 5.97 81.38 6.31 C77.96 6.17 74.54 6.02 71.12 5.88 C70.18 5.84 69.23 5.8 68.25 5.76 C63.42 5.54 58.62 5.26 53.81 4.8 C47.34 4.26 40.92 4.15 34.43 4.14 C33.22 4.14 32.01 4.14 30.77 4.13 C28.22 4.13 25.67 4.13 23.12 4.13 C19.31 4.13 15.5 4.11 11.69 4.09 C-12.34 4.03 -35.94 5.95 -59.75 9.12 C-60.74 9.25 -61.72 9.38 -62.74 9.52 C-76.91 11.38 -90.92 13.53 -104.81 16.95 C-106.62 17.31 -106.62 17.31 -109.62 17.31 C-109.62 15 -109.62 12.69 -109.62 10.31 C-75.77 4.3 -75.77 4.3 -61.56 2.5 C-60.71 2.39 -59.85 2.28 -58.97 2.16 C-39.41 -0.18 -19.66 0.04 0 0 Z " fill="#383C3E" transform="translate(953.625,693.6875)"/>
<path d="M0 0 C0.99 0 1.98 0 3 0 C3 3.96 3 7.92 3 12 C15.21 12 27.42 12 40 12 C40 13.32 40 14.64 40 16 C38.94 16.27 37.88 16.54 36.79 16.81 C18.38 21.54 -0.06 26.57 -17.89 33.19 C-21.24 34.43 -24.47 35.42 -28 36 C-23.71 30.17 -19.23 24.51 -14.69 18.88 C-12.1 15.67 -9.56 12.44 -7.11 9.14 C-6.65 8.54 -6.2 7.93 -5.74 7.31 C-4.89 6.17 -4.04 5.02 -3.21 3.86 C-2.06 2.32 -2.06 2.32 0 0 Z " fill="#067DB9" transform="translate(793,691)"/>
<path d="M0 0 C3.86 2 5.6 3.4 8 7 C8.57 11.82 8.59 16.44 6.88 21 C3.29 24.83 -0.34 26.18 -5.5 26.44 C-9.99 26.27 -12.59 25.01 -16 22 C-18.89 18.54 -19.54 15.51 -19.35 10.99 C-18.59 6.66 -16.07 3.95 -12.88 1.12 C-8.56 -0.56 -4.57 -0.67 0 0 Z " fill="#037DBA" transform="translate(825,857)"/>
<path d="M0 0 C15.84 0 31.68 0 48 0 C48 3.96 48 7.92 48 12 C32.16 12 16.32 12 0 12 C0 8.04 0 4.08 0 0 Z " fill="#3C3232" transform="translate(796,744)"/>
<path d="M0 0 C0.08 1.46 0.14 2.92 0.19 4.38 C0.24 5.59 0.24 5.59 0.29 6.84 C0.2 7.55 0.1 8.26 0 9 C-2.62 10.75 -4.04 11.42 -6.97 12.19 C-7.78 12.41 -8.58 12.63 -9.41 12.85 C-10.29 13.09 -11.16 13.32 -12.06 13.56 C-24.1 16.88 -35.84 20.98 -47.61 25.16 C-49.4 25.79 -51.2 26.4 -53 27 C-53 23.37 -53 19.74 -53 16 C-40.66 11.47 -28.31 6.99 -15.81 2.94 C-14.91 2.64 -14.01 2.34 -13.08 2.03 C-8.59 0.6 -4.79 -0.37 0 0 Z " fill="#F9F9F9" transform="translate(783,729)"/>
<path d="M0 0 C0 4.29 0 8.58 0 13 C-29.74 25 -29.74 25 -33 25 C-33 25.66 -33 26.32 -33 27 C-32.31 27.11 -31.62 27.23 -30.91 27.34 C-27.57 28.1 -24.57 29.24 -21.39 30.5 C-20.47 30.87 -20.47 30.87 -19.52 31.24 C-17.58 32.01 -15.63 32.79 -13.69 33.56 C-12.36 34.09 -11.04 34.61 -9.71 35.14 C-6.47 36.42 -3.24 37.71 0 39 C0 43.29 0 47.58 0 52 C-10.95 48.05 -21.7 43.69 -32.44 39.19 C-33.15 38.89 -33.86 38.6 -34.59 38.29 C-36.62 37.44 -38.65 36.59 -40.68 35.73 C-41.88 35.23 -43.07 34.73 -44.29 34.21 C-47 33 -47 33 -48 32 C-48.07 29.81 -48.08 27.62 -48.06 25.44 C-48.05 24.24 -48.04 23.04 -48.04 21.81 C-48.02 20.88 -48.01 19.95 -48 19 C-35.54 13.68 -23.07 8.37 -10.5 3.31 C-9.67 2.97 -8.83 2.64 -7.97 2.29 C-2.24 0 -2.24 0 0 0 Z M-8.09 4.69 C-8.93 5.05 -9.76 5.42 -10.63 5.79 C-11.54 6.19 -12.44 6.59 -13.38 7 C-21.81 10.67 -30.3 14.17 -38.86 17.52 C-39.66 17.84 -40.45 18.15 -41.27 18.47 C-41.96 18.74 -42.66 19.01 -43.38 19.29 C-45.01 19.89 -45.01 19.89 -46 21 C-46.07 22.69 -46.08 24.38 -46.06 26.06 C-46.05 26.98 -46.04 27.9 -46.04 28.85 C-46.02 29.56 -46.01 30.27 -46 31 C-40.86 33.1 -35.72 35.2 -30.58 37.3 C-28.83 38.01 -27.08 38.73 -25.34 39.44 C-22.82 40.47 -20.3 41.5 -17.78 42.52 C-17 42.84 -16.23 43.16 -15.43 43.49 C-11.01 45.28 -6.62 46.77 -2 48 C-2 45.69 -2 43.38 -2 41 C-5.66 39.51 -9.32 38.01 -12.99 36.52 C-14.83 35.77 -16.68 35.01 -18.52 34.26 C-25.34 31.48 -32.16 28.72 -39 26 C-31.39 22.75 -23.73 19.7 -16 16.75 C-14.62 16.22 -14.62 16.22 -13.21 15.68 C-12.34 15.35 -11.46 15.01 -10.56 14.67 C-9.78 14.37 -9 14.08 -8.19 13.77 C-6 13 -6 13 -2 12 C-2 9.03 -2 6.06 -2 3 C-4.44 3 -5.85 3.71 -8.09 4.69 Z " fill="#603245" transform="translate(844,915)"/>
<path d="M0 0 C15.84 0 31.68 0 48 0 C48 12.54 48 25.08 48 38 C44.37 38 40.74 38 37 38 C37 29.42 37 20.84 37 12 C34.36 12 31.72 12 29 12 C29 17.61 29 23.22 29 29 C25.37 29 21.74 29 18 29 C18 23.39 18 17.78 18 12 C12.06 12 6.12 12 0 12 C0 8.04 0 4.08 0 0 Z M2 2 C2 4.31 2 6.62 2 9 C8.27 9 14.54 9 21 9 C21 14.94 21 20.88 21 27 C22.98 27 24.96 27 27 27 C27 21.06 27 15.12 27 9 C31.29 9 35.58 9 40 9 C40 17.58 40 26.16 40 35 C41.98 35 43.96 35 46 35 C46 24.11 46 13.22 46 2 C31.48 2 16.96 2 2 2 Z " fill="#6A2A38" transform="translate(796,785)"/>
<path d="M0 0 C0.73 0 1.46 0 2.21 0 C4.53 0.01 6.85 0.02 9.18 0.04 C10.75 0.04 12.33 0.04 13.9 0.05 C17.77 0.06 21.63 0.08 25.49 0.1 C25.49 3.73 25.49 7.36 25.49 11.1 C24.7 11.12 23.92 11.14 23.1 11.16 C19.52 11.25 15.94 11.36 12.36 11.47 C10.51 11.52 10.51 11.52 8.61 11.57 C7.41 11.61 6.22 11.64 4.98 11.68 C3.88 11.72 2.78 11.75 1.65 11.78 C-1.71 12.12 -4.41 12.77 -7.51 14.1 C-9.99 17.82 -9.98 19.7 -9.51 24.1 C-7.62 26.75 -6.42 27.86 -3.25 28.68 C-0.26 29.14 2.64 29.31 5.66 29.41 C6.82 29.46 7.98 29.5 9.17 29.54 C10.37 29.58 11.57 29.62 12.8 29.66 C14.02 29.7 15.24 29.75 16.49 29.79 C19.49 29.9 22.49 30 25.49 30.1 C25.49 33.73 25.49 37.36 25.49 41.1 C21.08 41.2 16.67 41.27 12.26 41.32 C10.76 41.34 9.26 41.36 7.76 41.4 C-9.52 41.79 -9.52 41.79 -16.01 35.68 C-20.95 30.21 -21.98 25.03 -21.82 17.88 C-21.04 10.87 -17.53 6.58 -12.2 2.23 C-8.36 -0.35 -4.43 -0.03 0 0 Z M-16.45 9.16 C-19.54 14.79 -19.59 22.39 -17.83 28.45 C-15.7 33.17 -13.15 35.63 -8.51 38.1 C-5.09 39.24 -2.48 39.21 1.12 39.2 C2.42 39.19 3.72 39.19 5.06 39.19 C6.43 39.18 7.8 39.17 9.18 39.16 C10.56 39.16 11.94 39.15 13.33 39.15 C16.71 39.13 20.1 39.12 23.49 39.1 C23.49 36.79 23.49 34.48 23.49 32.1 C22.21 32.08 22.21 32.08 20.91 32.07 C17.73 32.03 14.55 31.96 11.37 31.89 C10 31.86 8.63 31.84 7.26 31.83 C5.28 31.81 3.3 31.76 1.32 31.71 C0.13 31.69 -1.06 31.67 -2.28 31.64 C-6.1 31 -7.77 29.78 -10.51 27.1 C-12.24 23.64 -12 19.88 -11.51 16.1 C-9.72 13.23 -8.53 11.61 -5.51 10.1 C-3.33 9.94 -1.15 9.85 1.03 9.78 C2.33 9.74 3.63 9.7 4.97 9.65 C6.35 9.61 7.73 9.57 9.11 9.54 C10.5 9.49 11.89 9.45 13.28 9.4 C16.68 9.3 20.08 9.2 23.49 9.1 C23.49 6.79 23.49 4.48 23.49 2.1 C19.36 1.97 15.24 1.88 11.11 1.82 C9.71 1.8 8.31 1.76 6.91 1.72 C-2.74 1.43 -9.6 1.86 -16.45 9.16 Z " fill="#275F8C" transform="translate(685.51171875,596.90234375)"/>
<path d="M0 0 C1.98 0 3.96 0 6 0 C6.03 4.48 6.05 8.96 6.06 13.44 C6.07 14.72 6.08 16 6.09 17.31 C6.09 18.53 6.09 19.74 6.1 21 C6.1 22.12 6.11 23.25 6.11 24.41 C6 27 6 27 5 28 C3.33 28.04 1.67 28.04 0 28 C0 26.35 0 24.7 0 23 C-12.54 23 -25.08 23 -38 23 C-38 20.69 -38 18.38 -38 16 C-25.46 16 -12.92 16 0 16 C0 10.72 0 5.44 0 0 Z " fill="#067AB6" transform="translate(836,678)"/>
<path d="M0 0 C8.58 0 17.16 0 26 0 C26 11.75 26 11.75 21.5 16.81 C18.01 19.51 14.73 19.72 10.41 19.49 C6.37 18.67 4.74 17.08 2 14 C-0.92 9.23 0 6.17 0 0 Z " fill="#871214" transform="translate(675,540)"/>
<path d="M0 0 C6.08 1.95 12.02 4.13 17.94 6.54 C19.15 7.03 19.15 7.03 20.38 7.53 C22.06 8.21 23.75 8.89 25.43 9.58 C28.02 10.63 30.61 11.68 33.2 12.73 C34.84 13.39 36.48 14.06 38.12 14.73 C38.9 15.04 39.68 15.35 40.48 15.68 C45.88 17.88 45.88 17.88 47 19 C47.07 21.02 47.08 23.04 47.06 25.06 C47.05 26.17 47.04 27.27 47.04 28.41 C47.02 29.26 47.01 30.12 47 31 C31.46 37.68 15.87 44.12 0 50 C0 45.71 0 41.42 0 37 C3.3 35.68 6.6 34.36 10 33 C10.33 27.39 10.66 21.78 11 16 C9.37 15.53 7.74 15.05 6.06 14.56 C1.12 13.12 1.12 13.12 0 12 C-0.07 9.98 -0.08 7.96 -0.06 5.94 C-0.05 4.83 -0.04 3.73 -0.04 2.59 C-0.02 1.74 -0.01 0.88 0 0 Z M2 3 C2 5.31 2 7.62 2 10 C3.43 10.67 4.87 11.34 6.31 12 C7.11 12.37 7.91 12.74 8.74 13.12 C11.06 14.18 11.06 14.18 14 14 C14 20.93 14 27.86 14 35 C11.52 35.5 11.52 35.5 9 36 C7.71 36.48 6.44 37 5.19 37.56 C4.14 38.04 3.08 38.51 2 39 C2 41.31 2 43.62 2 46 C10.86 43.21 19.44 39.74 28.06 36.31 C29.61 35.7 31.16 35.09 32.71 34.47 C36.47 32.99 40.24 31.49 44 30 C44 26.7 44 23.4 44 20 C40.23 18.38 36.46 16.76 32.7 15.15 C31.42 14.6 30.14 14.05 28.87 13.5 C24.58 11.66 20.29 9.83 16 8 C14.84 7.5 13.67 7 12.47 6.49 C11.39 6.03 10.31 5.58 9.2 5.11 C8.25 4.7 7.29 4.29 6.3 3.87 C4.1 2.88 4.1 2.88 2 3 Z " fill="#2D5B85" transform="translate(665,390)"/>
<path d="M0 0 C15.51 0 31.02 0 47 0 C47.15 5.63 47.15 5.63 47.31 11.38 C47.36 12.54 47.4 13.7 47.45 14.9 C47.57 23.76 45.23 29.98 39.69 36.88 C33.04 42.13 27.71 43.74 19.12 43.45 C13.1 42.58 9.21 39.53 5.19 35.12 C-0.23 27.39 -0.39 21.33 -0.19 12.06 C-0.13 8.08 -0.06 4.1 0 0 Z M2 3 C1.16 20.77 1.16 20.77 7.75 34.81 C11.95 38.9 16.12 40.79 21.94 41.44 C28.86 40.99 34.19 39.34 38.94 34.12 C42.67 29.63 44.26 25.55 44.2 19.7 C44.19 18.82 44.19 17.94 44.18 17.03 C44.16 15.93 44.14 14.82 44.12 13.69 C44.08 10.16 44.04 6.63 44 3 C30.14 3 16.28 3 2 3 Z " fill="#2F5A83" transform="translate(665,528)"/>
<path d="M0 0 C7.39 4.49 13 9.3 15.19 17.94 C16.16 25.78 15.32 32.65 10.61 39.1 C6.49 44.03 2.62 47.64 -3.81 48.94 C-11.49 49.56 -18.53 49.86 -24.81 44.94 C-31.22 38.97 -34.87 33.02 -35.31 24.12 C-35.09 16.79 -32.85 11.24 -27.88 5.83 C-19.72 -1.66 -10.7 -2.98 0 0 Z M-26.67 7.95 C-32.11 14.95 -32.68 21.17 -31.81 29.94 C-29.96 36.12 -27.05 40.67 -21.49 44.04 C-20.94 44.34 -20.38 44.63 -19.81 44.94 C-19.05 45.37 -18.29 45.8 -17.5 46.25 C-10.75 47.98 -4.63 47.64 1.44 44.13 C6.71 40.54 10.35 36.04 12.19 29.94 C13.18 22.65 12.93 16.17 8.89 9.88 C4.76 5.16 -0.89 1.39 -7.2 0.66 C-15.24 0.37 -21.08 1.9 -26.67 7.95 Z " fill="#5E3447" transform="translate(829.8125,846.0625)"/>
<path d="M0 0 C14.52 0 29.04 0 44 0 C44 2.64 44 5.28 44 8 C31.46 8 18.92 8 6 8 C6 8.66 6 9.32 6 10 C4.02 10 2.04 10 0 10 C0 6.7 0 3.4 0 0 Z " fill="#0C76AF" transform="translate(798,554)"/>
<path d="M0 0 C15.18 0 30.36 0 46 0 C46.06 4.5 46.12 8.99 46.19 13.62 C46.23 15.74 46.23 15.74 46.27 17.89 C46.28 19.01 46.29 20.13 46.29 21.29 C46.31 22.43 46.32 23.57 46.34 24.75 C45.88 29.15 44.31 32.42 41.5 35.81 C38.39 38.28 34.92 38.32 31.07 38.3 C27.65 37.8 25.67 36.13 23 34 C22.67 34.99 22.34 35.98 22 37 C17.71 39.85 12.96 39.65 8 39 C4.03 36.72 2.02 34.06 0 30 C-0.34 26.68 -0.34 26.68 -0.29 22.95 C-0.28 21.14 -0.28 21.14 -0.27 19.3 C-0.24 17.77 -0.22 16.25 -0.19 14.69 C-0.13 9.84 -0.06 4.99 0 0 Z M2 2 C1.94 6 1.88 10 1.81 14.12 C1.79 15.38 1.76 16.63 1.73 17.91 C1.68 24.76 2.1 29.28 6.41 34.82 C9.52 37.13 13.23 37.23 17 37 C19.93 35.39 19.93 35.39 22 33 C22.6 32.42 23.2 31.85 23.81 31.25 C24.2 30.84 24.6 30.43 25 30 C25.27 30.62 25.54 31.24 25.81 31.88 C26.96 34.3 26.96 34.3 30 36 C33.36 36.36 35.54 36.18 38.69 34.94 C41.74 32.38 43 29.78 44 26 C44.35 21.84 44.28 17.73 44.19 13.56 C44.13 9.75 44.06 5.93 44 2 C30.14 2 16.28 2 2 2 Z " fill="#27608D" transform="translate(665,463)"/>
<path d="M0 0 C7.26 0 14.52 0 22 0 C18.18 5.09 14.36 10.17 10.44 15.19 C9.98 15.78 9.53 16.37 9.06 16.97 C8.6 17.55 8.15 18.13 7.68 18.73 C7.09 19.49 7.09 19.49 6.48 20.27 C4.45 22.64 2.2 24.8 0 27 C0 18.09 0 9.18 0 0 Z " fill="#0F80BA" transform="translate(783,592)"/>
<path d="M0 0 C4.62 0 9.24 0 14 0 C14.08 2.75 14.14 5.5 14.19 8.25 C14.23 9.42 14.23 9.42 14.26 10.61 C14.31 14.08 14.32 16.39 12.7 19.51 C11 21 11 21 7.56 21.56 C4 21 4 21 1.79 18.98 C-0.57 15.05 -0.46 12.17 -0.25 7.69 C-0.23 6.95 -0.21 6.21 -0.2 5.44 C-0.15 3.63 -0.08 1.81 0 0 Z " fill="#2D5B85" transform="translate(672,472)"/>
<path d="M0 0 C4.29 0 8.58 0 13 0 C13.11 2.4 13.19 4.79 13.25 7.19 C13.3 8.2 13.3 8.2 13.35 9.23 C13.42 12.88 13.1 14.84 11.14 17.95 C9 20 9 20 6.5 20.62 C2.88 19.72 1.97 18.13 0 15 C-0.29 12.24 -0.39 9.92 -0.25 7.19 C-0.23 6.49 -0.21 5.8 -0.2 5.09 C-0.15 3.39 -0.08 1.7 0 0 Z " fill="#3C4F73" transform="translate(691,472)"/>
<path d="M0 0 C3.88 2.59 6.7 5.65 8.81 9.88 C9.41 15.6 9.02 19.95 5.81 24.88 C3.14 28.08 0.85 29.77 -3.19 30.88 C-8.82 31.32 -12.36 31.1 -17.19 27.88 C-21.23 23.88 -23.31 20.29 -23.5 14.56 C-23.44 9.93 -22.25 7.44 -19.19 3.88 C-13.37 -1.37 -7.4 -2.61 0 0 Z M-20.62 8.69 C-21.73 13 -22.18 16.84 -20.21 20.88 C-17.92 24.25 -16.04 26.35 -12.19 27.88 C-7.55 28.61 -3.43 28.35 0.75 26.12 C3.76 23.91 4.55 23.21 5.81 19.88 C6.34 16.15 6.36 12.6 5.81 8.88 C3.18 5.39 0.04 2.24 -4.42 1.5 C-11.68 1.31 -16.07 2.94 -20.62 8.69 Z " fill="#5E3448" transform="translate(827.1875,855.125)"/>
<path d="M0 0 C1.32 0.66 2.64 1.32 4 2 C4 6.29 4 10.58 4 15 C2.7 15.52 1.39 16.04 0.05 16.57 C-11.13 21.02 -11.13 21.02 -22.25 25.62 C-29.41 28.64 -36.71 31.31 -44 34 C-44.61 29.52 -44.85 25.46 -44 21 C-41.14 17.52 -37.81 15.34 -34 13 C-32.66 12.01 -31.32 11.02 -30 10 C-30 12.97 -30 15.94 -30 19 C-33.63 20.32 -37.26 21.64 -41 23 C-41.33 25.31 -41.66 27.62 -42 30 C-41.23 29.69 -40.47 29.38 -39.68 29.05 C-36.79 27.88 -33.9 26.7 -31.01 25.52 C-29.17 24.77 -27.32 24.01 -25.48 23.26 C-21.99 21.84 -18.49 20.42 -15 19 C-14.02 18.6 -13.04 18.2 -12.03 17.79 C-11.15 17.44 -10.28 17.08 -9.38 16.72 C-8.62 16.41 -7.87 16.11 -7.09 15.79 C-4.11 14.66 -1.09 13.81 2 13 C2 9.7 2 6.4 2 3 C1.01 2.67 0.02 2.34 -1 2 C-0.67 1.34 -0.34 0.68 0 0 Z " fill="#711B1C" transform="translate(840,630)"/>
<path d="M0 0 C1.97 -0.34 1.97 -0.34 4.35 -0.29 C5.63 -0.28 5.63 -0.28 6.93 -0.26 C7.82 -0.24 8.71 -0.21 9.62 -0.19 C10.97 -0.17 10.97 -0.17 12.34 -0.15 C14.56 -0.11 16.78 -0.06 19 0 C19 5.94 19 11.88 19 18 C20.98 18 22.96 18 25 18 C25 12.06 25 6.12 25 0 C29.29 0 33.58 0 38 0 C38.05 4.29 38.09 8.58 38.12 12.88 C38.14 14.1 38.16 15.32 38.18 16.58 C38.19 18.33 38.19 18.33 38.2 20.12 C38.21 21.74 38.21 21.74 38.23 23.39 C38 26 38 26 36 28 C39.3 28 42.6 28 46 28 C46 28.33 46 28.66 46 29 C42.37 29 38.74 29 35 29 C35 20.42 35 11.84 35 3 C32.36 3 29.72 3 27 3 C27 8.61 27 14.22 27 20 C23.37 20 19.74 20 16 20 C16 14.39 16 8.78 16 3 C10.06 3 4.12 3 -2 3 C-1.34 2.01 -0.68 1.02 0 0 Z " fill="#563A52" transform="translate(798,794)"/>
<path d="M0 0 C15.84 0 31.68 0 48 0 C48 3.96 48 7.92 48 12 C32.16 12 16.32 12 0 12 C0 8.04 0 4.08 0 0 Z M2 2 C2 4.64 2 7.28 2 10 C16.52 10 31.04 10 46 10 C46 7.36 46 4.72 46 2 C31.48 2 16.96 2 2 2 Z " fill="#731A1A" transform="translate(796,744)"/>
<path d="M0 0 C6.89 0.31 12.77 3.23 19 6 C19 9.3 19 12.6 19 16 C17.05 16.86 15.09 17.72 13.12 18.56 C12.03 19.04 10.94 19.51 9.82 20 C8.89 20.33 7.96 20.66 7 21 C6.34 20.67 5.68 20.34 5 20 C7.31 16.7 9.62 13.4 12 10 C10.45 9.55 8.91 9.09 7.31 8.62 C3.8 7.57 0.37 6.46 -3 5 C-1.12 1.12 -1.12 1.12 0 0 Z " fill="#393436" transform="translate(823,627)"/>
<path d="M0 0 C9.9 0 19.8 0 30 0 C30 15 30 15 27.88 18.75 C23.06 22.52 19.32 24.63 13.02 24.34 C7.87 23.47 4.84 21.02 1.56 17.06 C0 13 0 13 0 0 Z M2 2 C1.91 11.92 1.91 11.92 7.06 19.38 C11.39 21.77 15.18 22.01 20 21 C22.84 19.41 25.05 17.61 27 15 C28.36 10.23 28.36 10.23 28 2 C19.42 2 10.84 2 2 2 Z " fill="#275F8C" transform="translate(673,538)"/>
<path d="M0 0 C14.84 5.31 29.9 10.95 44 18 C44 18.66 44 19.32 44 20 C38.74 19.38 34.37 17.68 29.54 15.62 C28.75 15.29 27.96 14.96 27.14 14.62 C24.63 13.56 22.13 12.5 19.62 11.44 C17.92 10.72 16.21 10 14.5 9.28 C10.33 7.53 6.17 5.77 2 4 C2 6.31 2 8.62 2 11 C2.61 11.2 3.23 11.41 3.86 11.62 C8.93 13.31 8.93 13.31 14 15 C14 19.29 14 23.58 14 28 C13.34 28.33 12.68 28.66 12 29 C12 25.04 12 21.08 12 17 C10.39 16.53 8.78 16.05 7.12 15.56 C2.25 14.12 2.25 14.12 0 13 C0 8.71 0 4.42 0 0 Z " fill="#991318" transform="translate(796,612)"/>
<path d="M0 0 C3.32 0.66 5.76 1.18 8.77 2.41 C9.43 2.68 10.09 2.95 10.77 3.22 C11.45 3.5 12.12 3.78 12.81 4.06 C13.51 4.34 14.2 4.63 14.91 4.92 C16.61 5.61 18.31 6.3 20 7 C19 10 19 10 17.36 10.89 C16.66 11.13 15.97 11.36 15.25 11.61 C14.5 11.87 13.74 12.13 12.97 12.4 C12.17 12.66 11.38 12.92 10.56 13.19 C9.77 13.46 8.98 13.73 8.17 14.01 C2.33 16 2.33 16 0 16 C0 10.72 0 5.44 0 0 Z " fill="#731C1C" transform="translate(815,630)"/>
<path d="M0 0 C15.84 0 31.68 0 48 0 C48 3.3 48 6.6 48 10 C49.65 10 51.3 10 53 10 C53 10.33 53 10.66 53 11 C38.15 11 23.3 11 8 11 C8 10.67 8 10.34 8 10 C20.54 10 33.08 10 46 10 C46 7.36 46 4.72 46 2 C31.48 2 16.96 2 2 2 C2 5.3 2 8.6 2 12 C1.34 12 0.68 12 0 12 C0 8.04 0 4.08 0 0 Z " fill="#6C2938" transform="translate(796,552)"/>
<path d="M0 0 C6.86 1.96 13.42 4.24 20 7 C18.32 10.36 14.5 10.9 11.12 12.12 C10.39 12.4 9.66 12.68 8.9 12.96 C5.82 14.11 3.31 15 0 15 C0 10.05 0 5.1 0 0 Z " fill="#285E8B" transform="translate(684,407)"/>
<path d="M0 0 C0.33 0 0.66 0 1 0 C1 5.28 1 10.56 1 16 C-1.41 17.01 -3.83 18.02 -6.31 19.06 C-7.07 19.38 -7.82 19.71 -8.6 20.04 C-13.67 22.11 -13.67 22.11 -17 21 C-16.61 20.57 -16.22 20.15 -15.82 19.71 C-11.37 14.74 -7.29 9.55 -3.29 4.22 C-2.21 2.8 -1.11 1.4 0 0 Z " fill="#F7F7F7" transform="translate(782,705)"/>
<path d="M0 0 C1.98 0 3.96 0 6 0 C6 7.59 6 15.18 6 23 C4.02 23 2.04 23 0 23 C0 15.41 0 7.82 0 0 Z " fill="#BE1B2C" transform="translate(798,564)"/>
<path d="M0 0 C2.97 0 5.94 0 9 0 C9.08 2.1 9.14 4.21 9.19 6.31 C9.22 7.48 9.26 8.66 9.29 9.86 C9 13 9 13 7.65 14.93 C6 16 6 16 3.38 15.75 C1 15 1 15 0 14 C-0.07 11.65 -0.08 9.29 -0.06 6.94 C-0.05 5.65 -0.04 4.36 -0.04 3.03 C-0.02 2.03 -0.01 1.03 0 0 Z " fill="#871213" transform="translate(675,475)"/>
<path d="M0 0 C2.31 0 4.62 0 7 0 C7.03 2.15 7.05 4.29 7.06 6.44 C7.07 7.63 7.09 8.83 7.1 10.06 C7 13 7 13 6 14 C3.5 14.12 3.5 14.12 1 14 C0 13 0 13 -0.1 10.06 C-0.09 8.86 -0.07 7.67 -0.06 6.44 C-0.05 5.24 -0.04 4.04 -0.04 2.81 C-0.02 1.88 -0.01 0.95 0 0 Z " fill="#8A1011" transform="translate(694,475)"/>
<path d="M0 0 C0.99 0 1.98 0 3 0 C3 3.3 3 6.6 3 10 C1.05 10.86 -0.91 11.72 -2.88 12.56 C-3.97 13.04 -5.06 13.51 -6.18 14 C-7.11 14.33 -8.04 14.66 -9 15 C-9.66 14.67 -10.32 14.34 -11 14 C-10.05 12.66 -9.09 11.33 -8.12 10 C-7.32 8.89 -7.32 8.89 -6.51 7.75 C-6.01 7.17 -5.51 6.6 -5 6 C-4.34 6 -3.68 6 -3 6 C-2.88 5.38 -2.75 4.76 -2.62 4.12 C-2 2 -2 2 0 0 Z " fill="#0779B3" transform="translate(839,633)"/>
<path d="M0 0 C1.32 0.66 2.64 1.32 4 2 C4 6.29 4 10.58 4 15 C-1.94 17.31 -7.88 19.62 -14 22 C-14 21.01 -14 20.02 -14 19 C-11.71 18 -9.42 17 -7.12 16 C-6.47 15.71 -5.82 15.43 -5.15 15.13 C-0.23 13 -0.23 13 2 13 C2 9.7 2 6.4 2 3 C1.01 2.67 0.02 2.34 -1 2 C-0.67 1.34 -0.34 0.68 0 0 Z " fill="#632F40" transform="translate(840,630)"/>
<path d="M0 0 C4.29 0 8.58 0 13 0 C13 0.99 13 1.98 13 3 C9.37 2.67 5.74 2.34 2 2 C2.11 3.9 2.24 5.79 2.38 7.69 C2.44 8.74 2.51 9.8 2.59 10.89 C2.99 13.91 3.74 16.24 5 19 C1.12 17.25 1.12 17.25 0 15 C-0.07 12.45 -0.09 9.93 -0.06 7.38 C-0.06 6.67 -0.05 5.96 -0.05 5.23 C-0.04 3.49 -0.02 1.74 0 0 Z " fill="#236291" transform="translate(691,472)"/>
<path d="M0 0 C3.63 1.32 7.26 2.64 11 4 C8.14 6.86 6.72 7.79 3 9 C2.01 9 1.02 9 0 9 C0 6.03 0 3.06 0 0 Z " fill="#383434" transform="translate(818,633)"/>
<path d="M0 0 C1.46 0.45 2.92 0.91 4.38 1.38 C5.19 1.63 6 1.89 6.84 2.15 C9 3 9 3 11 5 C9.54 5.67 8.08 6.34 6.62 7 C5.41 7.56 5.41 7.56 4.16 8.12 C2 9 2 9 0 9 C0 6.03 0 3.06 0 0 Z " fill="#831519" transform="translate(686,410)"/>
<path d="M0 0 C-0.04 0.78 -0.08 1.57 -0.12 2.38 C-0.29 5.16 -0.29 5.16 2 7 C-1.63 7 -5.26 7 -9 7 C-9 5.35 -9 3.7 -9 2 C-5.63 0.5 -3.8 0 0 0 Z " fill="#474664" transform="translate(842,712)"/>
<path d="M0 0 C6.93 2.97 6.93 2.97 14 6 C14 6.66 14 7.32 14 8 C8.24 7.39 3.28 5.24 -2 3 C-1.34 2.01 -0.68 1.02 0 0 Z " fill="#711C1D" transform="translate(826,624)"/>
<path d="M0 0 C0 2.31 0 4.62 0 7 C-1.98 7.33 -3.96 7.66 -6 8 C-6 5.69 -6 3.38 -6 1 C-1.12 0 -1.12 0 0 0 Z " fill="#383435" transform="translate(842,705)"/>
<path d="M0 0 C0 1.65 0 3.3 0 5 C-4.46 6.49 -4.46 6.49 -9 8 C-7.33 6.33 -5.67 4.67 -4 3 C-3.42 2.4 -2.85 1.8 -2.25 1.19 C-1 0 -1 0 0 0 Z " fill="#433439" transform="translate(808,642)"/>
<path d="M0 0 C0 1.32 0 2.64 0 4 C-1.98 4 -3.96 4 -6 4 C-6 3.01 -6 2.02 -6 1 C-4 0 -4 0 0 0 Z " fill="#0976AE" transform="translate(842,712)"/>
<path d="M0 0 C0.99 0 1.98 0 3 0 C3 1.98 3 3.96 3 6 C2.01 6.33 1.02 6.66 0 7 C0 4.69 0 2.38 0 0 Z " fill="#6A1E1F" transform="translate(833,707)"/>
</svg>
